# xmcd CD database file
#
# Track frame offsets:
#	150
#	18549
#	32175
#	45150
#	57437
#	72200
#	88400
#	98348
#	116999
#	134206
#	145339
#
# Disc length: 2102 seconds
#
# Revision: 0
# Processed by: cddbd v1.5.2PL0 Copyright (c) Steve Scherf et al.
# Submitted via: CDex 1.77
#
DISCID=a108340b
DTITLE=Lizzy Long - Blueberry Pie
DYEAR=2015
DGENRE=Country
TTITLE0=Blueberry Pie
TTITLE1=Speak Now
TTITLE2=Communication Breakdown (featuring Sam Bush)
TTITLE3=Love, I'm In Love (featuring Ernie Haase and Signature Sound)
TTITLE4=God Is There (duet with Rhonda Vincent)
TTITLE5=It Don't Take Much
TTITLE6=Figueroa Mountain (featuring Sam Bush)
TTITLE7=Backwoods Lullaby (featuring Destiny Rambo McGuire)
TTITLE8=Feed The Birds (Tuppence a Bag)
TTITLE9=Love's A Mountain Road
TTITLE10=When My Heart Cries
EXTD=YEAR: 2015
EXTT0=
EXTT1=
EXTT2=
EXTT3=
EXTT4=
EXTT5=
EXTT6=
EXTT7=
EXTT8=
EXTT9=
EXTT10=
PLAYORDER=
